<svg id="Layer_1" data-name="Layer 1" xmlns="http://www.w3.org/2000/svg" xmlns:xlink="http://www.w3.org/1999/xlink" viewBox="0 0 379.89 314.71" width="406" height="306" class="illustration styles_illustrationTablet__1DWOa"><defs><linearGradient id="linear-gradient" x1="210.56" y1="183.59" x2="198.18" y2="24.3" gradientUnits="userSpaceOnUse"><stop offset="0.01"></stop><stop offset="0.13" stop-opacity="0.69"></stop><stop offset="0.25" stop-opacity="0.32"></stop><stop offset="1" stop-opacity="0"></stop></linearGradient><linearGradient id="linear-gradient-2" x1="67.75" y1="200.54" x2="131.95" y2="219.06" xlink:href="#linear-gradient"></linearGradient><linearGradient id="linear-gradient-3" x1="347.27" y1="194.23" x2="225.46" y2="275.21" gradientTransform="translate(120.5 -102.76) rotate(24.41)" xlink:href="#linear-gradient"></linearGradient><linearGradient id="linear-gradient-4" x1="87.76" y1="97.83" x2="227.31" y2="32.91" xlink:href="#linear-gradient"></linearGradient></defs><title>17</title><path d="M254.37,14.19c-12.05-5.71-25.57-7.61-38.9-8.09-31-1.13-65.1,6.77-83.7,31.61-6.44,8.6-10.58,18.65-15.31,28.29a242.85,242.85,0,0,1-38.74,56.85c-10.33,11.3-21.76,21.65-31,33.88C25.35,185.13,17.49,224,29,257.66s43.27,60.18,78.72,62.8c21.27,1.57,42.21-4.9,63.33-7.89,46.81-6.62,94.12,3.92,141.29,7.23,17.56,1.23,36,1.29,51.72-6.63,28-14.1,38.78-48.95,39.47-80.31,1.63-74.62-37.91-139.18-98.16-180.08C287.8,40.83,273.78,23.4,254.37,14.19Z" transform="translate(-23.72 -5.99)" fill="#209d4e" opacity="0.18" style="isolation: isolate;"></path><path d="M301.2,104a18.54,18.54,0,0,1-5.79,13.49,19.47,19.47,0,0,1-11.55,5.24,17.82,17.82,0,0,1-2.43.11l-135.55-2.76c-10.92-.21-19.75-9-19.75-19.63A18.51,18.51,0,0,1,131.91,87a19.63,19.63,0,0,1,14-5.35l4.6.09A37.62,37.62,0,0,1,149,71.41a36.61,36.61,0,0,1,11.41-26.59,38.36,38.36,0,0,1,11-7.27A39.19,39.19,0,0,1,188,34.28l11.52.24a40.05,40.05,0,0,1,34.57,21.14,23.7,23.7,0,0,1,10.64-2.27l3,.06c12.94.26,23.44,10.69,23.44,23.29v1.12a21.66,21.66,0,0,1-.92,6.27l11.22.24C292.34,84.58,301.2,93.37,301.2,104Z" transform="translate(-23.72 -5.99)" fill="#fff"></path><path d="M283.86,122.73a17.82,17.82,0,0,1-2.43.11l-135.55-2.76c-10.92-.21-19.75-9-19.75-19.63A18.51,18.51,0,0,1,131.91,87c-5.33,33.46,29.6,28.68,29.6,28.68h88.07Z" transform="translate(-23.72 -5.99)" fill="url(#linear-gradient)"></path><path d="M107.34,180.6l-.13-.08.37.07Z" transform="translate(-23.72 -5.99)" fill="#fff"></path><path d="M111.28,181.25l-3.7-.66,4-.23C111.38,180.93,111.28,181.25,111.28,181.25Z" transform="translate(-23.72 -5.99)" fill="#fff"></path><path d="M129.55,130l-2.18,10.76-3,1-7.07,21.35q-2,5.94-3.94,11.89c-.41,1.27-.71,3.4-1.57,4.44s-1.91.75-3,.8l-1.81.08a1.5,1.5,0,0,0,.23.15l-.71-.14-1-.17.56-1.45,14.76-38.63v-5l5.55-6.56Z" transform="translate(-23.72 -5.99)" fill="#fff"></path><path d="M71.22,271.13a10.1,10.1,0,0,0-3.49,2.62,7.16,7.16,0,0,0-1.21,4.07,12.24,12.24,0,0,0,3.22,8.56,1.73,1.73,0,0,0,1,.66,1.54,1.54,0,0,0,.9-.23,6.76,6.76,0,0,0,2.78-4,14.91,14.91,0,0,1,1.92-4.61c1.91-2.49,9.1-4.88,5.67-9.11C79.18,265.53,74,269.64,71.22,271.13Z" transform="translate(-23.72 -5.99)" fill="#ffbbab"></path><path d="M94,232.27a100,100,0,0,1,5.89,10.87c3,6.56,3.08,12.12-1.94,17.6-4.59,5-9.24,10.07-14.9,13.82-1.33.88-2.88,1.72-4.45,1.42-2.31-.46-3.47-3.31-3-5.62s2.12-4.19,3.63-6c2.58-3.07,9.37-9.32,8-13.27-1.88-5.27-7.4-9.2-10.17-14a2.08,2.08,0,0,1-.39-1.65c.14-.43-1.51-3.75-1.14-4,3.6-2.56,9.54-1.67,13.65-3.29a2.51,2.51,0,0,1,1.31-.26,2.55,2.55,0,0,1,1.47,1.26Q92.95,230.66,94,232.27Z" transform="translate(-23.72 -5.99)" fill="#282328"></path><path d="M66.34,272.72s-2,.15-2.56,1.46-1.66,12.48,5.46,16.12,1-10.19,1-10.19Z" transform="translate(-23.72 -5.99)" fill="#209d4e"></path><path d="M70.38,271.15a1.36,1.36,0,0,1,.36,1.73,5.59,5.59,0,0,0,.61,5.39c1.38,1.66,3.91,1.34,4.38,2.27s-1.31,8-3,9.17-4.27-.7-5.84-3.43-2.75-10-1.87-12S69.12,271,70.38,271.15Z" transform="translate(-23.72 -5.99)" fill="#fff"></path><path d="M104,273.87a10.1,10.1,0,0,0,.16,4.35,7.15,7.15,0,0,0,2.66,3.32,12.26,12.26,0,0,0,8.87,2.23,1.81,1.81,0,0,0,1.13-.47,1.52,1.52,0,0,0,.32-.87,6.73,6.73,0,0,0-1.73-4.58,15,15,0,0,1-2.69-4.2c-1-3,1.16-10.26-4.26-9.85C103.89,264.14,104.31,270.75,104,273.87Z" transform="translate(-23.72 -5.99)" fill="#ffbbab"></path><path d="M85,233.05a101.12,101.12,0,0,1,12.28,1.35c7.13,1.24,11.72,4.37,13.37,11.62,1.5,6.62,3,13.33,2.88,20.12,0,1.59-.23,3.35-1.37,4.46-1.7,1.65-4.7,1-6.32-.74s-2.24-4.12-2.87-6.4c-1.06-3.87-2.32-13-6.37-14.1-6.88-1.85-14,2.37-20.77-.36A30.91,30.91,0,0,1,69,245.47a12.68,12.68,0,0,1-4.63-6,14.24,14.24,0,0,1-.63-3.95,15.93,15.93,0,0,1,.14-3.31c.23-1.26.44-1.11,1.73-1.08,2.16,0,4.32.24,6.48.49C76.4,232.14,80.66,232.85,85,233.05Z" transform="translate(-23.72 -5.99)" fill="#473f47"></path><path d="M102.49,278.78s-1,1.73-.25,2.94,9.31,8.47,16.36,4.69-7.82-6.61-7.82-6.61Z" transform="translate(-23.72 -5.99)" fill="#209d4e"></path><path d="M103.5,274.57a1.35,1.35,0,0,1,1.63.69,5.63,5.63,0,0,0,4.79,2.57c2.14-.19,3.32-2.45,4.35-2.31s5.83,5.63,5.83,7.68-3,3.11-6.14,2.84-9.83-3.45-10.92-5.28S102.63,275.49,103.5,274.57Z" transform="translate(-23.72 -5.99)" fill="#fff"></path><path d="M102.43,207.27c-.1,1.67-.64,3.14-2.09,3.62l-.38.1c-2.67.54-6.18-1.5-8.63-3.28a34.16,34.16,0,0,1-2.92-2.37V187.43l13,13.32A20.47,20.47,0,0,1,102.43,207.27Z" transform="translate(-23.72 -5.99)" fill="#fff"></path><path d="M91.43,207.66c0,.83.1,1.68.11,2.52,0,4.63-1.08,9.4.3,13.93a5.11,5.11,0,0,1,.39,3.1,3.87,3.87,0,0,1-1.94,1.86c-4.07,2.23-8.79,2.91-13.39,3.56-3.46.49-8.37,1.51-11.57-.35-1.36-.79-1.82-2.27-2.26-3.75a71,71,0,0,1-2.16-14.59c0-.64-.09-1.28-.13-1.92q-.39-6.65-.27-13.3c.07-3.22.32-6.69,2.42-9.12,2.8-3.23,8.2-5.37,12.3-6.13a14.07,14.07,0,0,1,4-.22,17.1,17.1,0,0,1,5.48,1.86c2,1,3.84,1.86,4.85,3.87a27.67,27.67,0,0,1,2.27,7.34,26.63,26.63,0,0,1,.13,7.19c-.12,1.18-.43,2.34-.54,3.51C91.44,207.23,91.43,207.44,91.43,207.66Z" transform="translate(-23.72 -5.99)" fill="#fff"></path><path d="M72.55,233.85c-1.34.4-4.43-.83-5.46-1-.62-.11-1.18-.42-1.79-.57-3.06-.76-3.42-9.37-3.72-11.68-.8-6.13-2-12.47-2.09-18.61a20.65,20.65,0,0,1,.81-7,8.08,8.08,0,0,1,4.6-5.1,2.25,2.25,0,0,1,1.35-.15c1.87.48,2.26,3.55,2.58,5.05.48,2.29,1.3,4.66,3.29,6.07,4.84,3.45,13,.89,18.23,0a2.45,2.45,0,0,1,1.42.05,1.75,1.75,0,0,1,.75,2,9.93,9.93,0,0,1-1,2.09c-1.25,2.52-.92,5.51-1.62,8.23a15.32,15.32,0,0,1-5.9,8,65.17,65.17,0,0,1-8.78,5.06,6.43,6.43,0,0,0-1.84,1.29,4.16,4.16,0,0,0-.89,2.78c0,.64.82,2.6.58,3A.84.84,0,0,1,72.55,233.85Z" transform="translate(-23.72 -5.99)" fill="#020202" opacity="0.1"></path><path d="M82,179.64a3,3,0,0,1-1.88.94,10.09,10.09,0,0,1-1.82,0l-.34,0a.35.35,0,0,0-.25,0,.4.4,0,0,0-.11.27,21.18,21.18,0,0,0-.07,3.65h0l.06.66a1.2,1.2,0,0,1-.06.68,1.19,1.19,0,0,1-.73.49,5.83,5.83,0,0,1-1.65.28,7.38,7.38,0,0,1-3.35-1.18,33.9,33.9,0,0,0-.33-6.21c-.38-2.65-1.08-5.31-.79-8a5.16,5.16,0,0,1,1.09-2.9,5.25,5.25,0,0,1,4-1.42,10,10,0,0,1,5.42,1.49c.6.4.67.92.81,1.6.2,1,.37,2.11.49,3.17s.2,2.42.22,3.64A4.14,4.14,0,0,1,82,179.64Z" transform="translate(-23.72 -5.99)" fill="#ffbbab"></path><path d="M79.78,168.89a3.7,3.7,0,0,1-1.11.32,9.13,9.13,0,0,0-2.94.41,4,4,0,0,0-2,4.9c-.52.19-.61-.75-1-1.13s-1.31.13-1.37.78A4,4,0,0,0,72,176a5.46,5.46,0,0,1,.24,3.63c-.08.28-.29.62-.57.54s-.48-.55-.66-.76a7.12,7.12,0,0,0-.9-.92c-.83-.73-1.12-1.27-2.35-1.11a3.17,3.17,0,0,1-1.73,0c-.54-.23-.87-1-.44-1.41-1.08-.14-1.55-1.49-1.4-2.56a4.64,4.64,0,0,1,.58-1.7,4.54,4.54,0,0,0,.54-1,8,8,0,0,0,0-2.18,3.59,3.59,0,0,1,2.2-3,8.19,8.19,0,0,1,3.81-.53,1.21,1.21,0,0,0,.68-.1,1.42,1.42,0,0,0,.39-.48,5.53,5.53,0,0,1,5.61-2.5,9.58,9.58,0,0,1,3.74,1.88,2.55,2.55,0,0,1,.87.89,2.6,2.6,0,0,1,.16,1.24,20.65,20.65,0,0,1-.22,2.08,1,1,0,0,1-.37.73c-.31.18-.68,0-1-.08A2.21,2.21,0,0,0,79.78,168.89Z" transform="translate(-23.72 -5.99)" fill="#473f47"></path><path d="M78.27,180.62l-.34,0a.35.35,0,0,0-.25,0,.4.4,0,0,0-.11.27,21.18,21.18,0,0,0-.07,3.65h0a4.88,4.88,0,0,1-3.36-5.17,20.31,20.31,0,0,0,4.1,1.22Z" transform="translate(-23.72 -5.99)" fill="#e0a194"></path><path d="M113.28,202.64a25.67,25.67,0,0,1-6.25,6.23,12.37,12.37,0,0,1-5.87,2.11,2.05,2.05,0,0,1-.82-.09,2.17,2.17,0,0,1-1.13-.78,6.58,6.58,0,0,1-1.51-3.71c-.14-3.57,3.72-5.65,3.72-5.65s8.81-2.81,9.85-2.35c.58.25,1.12,1.49,1.5,2.56C113.08,201.86,113.28,202.64,113.28,202.64Z" transform="translate(-23.72 -5.99)" fill="#fff"></path><path d="M113.28,202.64a25.67,25.67,0,0,1-6.25,6.23,12.37,12.37,0,0,1-5.87,2.11,2.05,2.05,0,0,1-.82-.09l-.38.1c-2.67.54-6.18-1.5-8.63-3.28l0-.05.82-5.36a21.17,21.17,0,0,0,5.52,4.1,8,8,0,0,0,4.73.87,4.9,4.9,0,0,0,1.27-.39,41.22,41.22,0,0,0,9.07-5.92C113.08,201.86,113.28,202.64,113.28,202.64Z" transform="translate(-23.72 -5.99)" fill="#020202" opacity="0.1"></path><path d="M116.14,188.69c-.38,1-3.75,2.4-3.75,2.4L109.2,201S96.42,237.2,93.89,239c-1.37,1-4.09.39-6.68-.74A21,21,0,0,1,81.78,235c-2.36-2.19,12.11-35.85,12.11-35.85l5-13.49s-1.2-1.77,0-5.46c.56-1.73,3.62-1.62,6.9-.84,3.78.93,7.87,2.77,8.82,3.82A6.08,6.08,0,0,1,116.14,188.69Z" transform="translate(-23.72 -5.99)" fill="#209d4e"></path><path d="M103.07,193.92a8.23,8.23,0,0,1-1.34,3.44,14.34,14.34,0,0,1-3,3.86A10.18,10.18,0,0,0,97,202.67a10.65,10.65,0,0,0-1.18,2.82,7.67,7.67,0,0,1-4.15,4.29c-3.3,5.5-3.52,12.23-4.64,18.55a30.42,30.42,0,0,0-.76,6,9,9,0,0,0,.94,4A21,21,0,0,1,81.78,235c-2.36-2.19,12.11-35.85,12.11-35.85l5-13.49s-1.2-1.77,0-5.46c.56-1.73,3.62-1.62,6.9-.84l-.32.84,1,.17-3.48.16a2.37,2.37,0,0,0-1.19.27,1.64,1.64,0,0,0-.55.7c-.7,1.62.51,3.47,2,4.45s3.25,1.46,4.61,2.61l-5.35-.55a1,1,0,0,0-.59,0,1.11,1.11,0,0,0-.33.44c-.19.4-.39.79-.58,1.19a.81.81,0,0,0-.12.47c0,.31.4.45.67.59A3.21,3.21,0,0,1,103.07,193.92Z" transform="translate(-23.72 -5.99)" fill="url(#linear-gradient-2)"></path><path d="M95.68,190.9l.34-.52c.14-.23.37-.48.62-.39s.28.45.5.58a.62.62,0,0,0,.36.05,19.92,19.92,0,0,1,3.37.12,1.85,1.85,0,0,1,1.57,1.1,2.52,2.52,0,0,1-.06,1.36,6.77,6.77,0,0,1-1.36,3.12,7.06,7.06,0,0,1-2.24,1.42,7.83,7.83,0,0,0-2,1.15c-.8.52-1.39,1.32-2.17,1.88a2.28,2.28,0,0,1-3.34-3.07l1.19-1.82Z" transform="translate(-23.72 -5.99)" fill="#ffbbab"></path><rect x="62.63" y="189.11" width="13.22" height="31.12" rx="6.61" transform="translate(-88.16 28.94) rotate(-19.53)" fill="#fff"></rect><path d="M76.15,203.52l14.56-7.94L96.33,202S78,220.44,72.58,219.71s-3.13-6.47-3.13-6.47S67.41,207.07,76.15,203.52Z" transform="translate(-23.72 -5.99)" fill="#fff"></path><path d="M110.24,193.79a3,3,0,0,0-1,3.38,4.16,4.16,0,0,0,.36,1.08,4.46,4.46,0,0,0,.93,1.06l.84.76a.85.85,0,0,0,.35.24.69.69,0,0,0,.74-.32,2.08,2.08,0,0,0,.26-.82c.25-1.52,1.16-4,.73-5.51C112.9,191.87,111.06,192.86,110.24,193.79Z" transform="translate(-23.72 -5.99)" fill="#ffbbab"></path><path d="M317.24,178.77a7.62,7.62,0,0,1,5.13-3.18c4.14-.59,7.45,2.4,9.12,5.92,1,2.06,1.5,4.41,3.06,6.08,1.33,1.43,3.23,2.15,5,2.95,4.23,1.89,8.26,4.54,10.85,8.37a6.92,6.92,0,0,1,1.4,3.71c0,1.93-1.29,3.72-1.15,5.65.16,2.16,2,3.76,2.95,5.71a8,8,0,0,1-1.45,8.63,9.67,9.67,0,0,1-8.5,2.76,12.35,12.35,0,0,1-7.71-4.79c-4-5.19-4.25-12.85-9.2-17.11-1.34-1.15-3.06-2.11-3.59-3.81-.38-1.19-.06-2.47-.11-3.72a6.28,6.28,0,0,0-3.24-5.14c-2.95-1.58-6.45-.91-7.19-5.16a4.31,4.31,0,0,1,2.2-4.6,6.6,6.6,0,0,0,1.17-.55,4.42,4.42,0,0,0,1-1.38A4,4,0,0,1,317.24,178.77Z" transform="translate(-23.72 -5.99)" fill="#fc682d"></path><path d="M288.25,197a.46.46,0,0,0,.13-.08L288,197Z" transform="translate(-23.72 -5.99)" fill="#fff"></path><path d="M279.72,273a10,10,0,0,1-1.8,4A7.16,7.16,0,0,1,274.2,279a12.29,12.29,0,0,1-9.05-1.31,1.82,1.82,0,0,1-.87-.86,1.56,1.56,0,0,1,0-.93,6.73,6.73,0,0,1,3.34-3.58,15,15,0,0,0,4.08-2.87c2-2.4,2.81-9.93,7.68-7.5C283.49,264,280.59,270,279.72,273Z" transform="translate(-23.72 -5.99)" fill="#ffbbab"></path><path d="M312.78,242.43A99.86,99.86,0,0,0,300.91,239c-7.06-1.56-12.5-.4-16.77,5.68-3.91,5.55-7.85,11.18-10.3,17.52-.58,1.49-1.06,3.18-.42,4.65.94,2.16,4,2.68,6.12,1.71s3.64-3,5.08-4.83c2.45-3.18,7.09-11.16,11.25-10.63,5.55.7,10.58,5.24,15.9,6.91a2.08,2.08,0,0,0,1.69,0c.4-.23,4,.66,4.17.24,1.74-4.06-.42-9.67.29-14a2.49,2.49,0,0,0,0-1.33,2.47,2.47,0,0,0-1.54-1.17C315.16,243.3,314,242.85,312.78,242.43Z" transform="translate(-23.72 -5.99)" fill="#282328"></path><path d="M279.22,278.09s.29,2-.87,2.82-11.83,4.31-16.92-1.87,9.74-3.15,9.74-3.15Z" transform="translate(-23.72 -5.99)" fill="#209d4e"></path><path d="M279.89,273.81a1.36,1.36,0,0,0-1.77,0,5.62,5.62,0,0,1-5.4.55c-1.91-1-2.15-3.53-3.15-3.79s-7.53,3-8.31,4.9,1.6,4,4.6,5,10.41.53,12.11-.75S280.35,275,279.89,273.81Z" transform="translate(-23.72 -5.99)" fill="#fff"></path><path d="M291.62,290.28a10.16,10.16,0,0,1-.16,4.36A7.13,7.13,0,0,1,288.8,298a12.24,12.24,0,0,1-8.87,2.22,1.7,1.7,0,0,1-1.13-.47,1.46,1.46,0,0,1-.32-.86,6.75,6.75,0,0,1,1.73-4.59,14.88,14.88,0,0,0,2.69-4.2c1-3-1.16-10.26,4.26-9.85C291.7,280.55,291.28,287.16,291.62,290.28Z" transform="translate(-23.72 -5.99)" fill="#ffbbab"></path><path d="M310.62,249.47a101.12,101.12,0,0,0-12.28,1.35c-7.13,1.23-11.72,4.37-13.37,11.61-1.5,6.63-3,13.33-2.88,20.12,0,1.6.23,3.35,1.37,4.46,1.7,1.65,4.7,1,6.32-.73s2.24-4.13,2.87-6.4c1.06-3.87,2.32-13,6.38-14.11,6.87-1.85,14.05,2.38,20.76-.35a30.31,30.31,0,0,0,6.77-3.54,12.61,12.61,0,0,0,4.63-5.95,13.54,13.54,0,0,0,.63-4,16.62,16.62,0,0,0-.13-3.31c-.23-1.26-.45-1.12-1.73-1.09-2.17,0-4.33.25-6.49.49C319.19,248.56,314.93,249.26,310.62,249.47Z" transform="translate(-23.72 -5.99)" fill="#473f47"></path><path d="M293.1,295.2s1,1.72.26,2.93-9.32,8.48-16.37,4.7,7.82-6.61,7.82-6.61Z" transform="translate(-23.72 -5.99)" fill="#209d4e"></path><path d="M292.09,291a1.35,1.35,0,0,0-1.63.69,5.58,5.58,0,0,1-4.78,2.56c-2.14-.19-3.33-2.45-4.36-2.31s-5.83,5.63-5.83,7.68,3,3.11,6.14,2.85,9.83-3.46,10.92-5.29S293,291.91,292.09,291Z" transform="translate(-23.72 -5.99)" fill="#fff"></path><path d="M293.16,223.69c.1,1.67.64,3.13,2.09,3.61a2.38,2.38,0,0,0,.38.11c2.67.53,6.18-1.5,8.63-3.28a35.3,35.3,0,0,0,2.92-2.38V203.84l-13,13.33A20.78,20.78,0,0,0,293.16,223.69Z" transform="translate(-23.72 -5.99)" fill="#fff"></path><path d="M282.31,219.06a25.67,25.67,0,0,0,6.25,6.23,12.6,12.6,0,0,0,5.87,2.11,2.06,2.06,0,0,0,.82-.1,2.17,2.17,0,0,0,1.13-.78,6.53,6.53,0,0,0,1.51-3.71c.14-3.57-3.72-5.64-3.72-5.64s-8.81-2.81-9.85-2.35c-.58.25-1.12,1.48-1.5,2.56C282.51,218.28,282.31,219.06,282.31,219.06Z" transform="translate(-23.72 -5.99)" fill="#fff"></path><path d="M282.31,219.06a25.67,25.67,0,0,0,6.25,6.23,12.6,12.6,0,0,0,5.87,2.11,2.06,2.06,0,0,0,.82-.1,2.38,2.38,0,0,0,.38.11c2.67.53,6.18-1.5,8.63-3.28l0-.06-.83-5.35a21.25,21.25,0,0,1-5.52,4.09,7.92,7.92,0,0,1-4.73.88,4.9,4.9,0,0,1-1.27-.39,41.59,41.59,0,0,1-9.07-5.92C282.51,218.28,282.31,219.06,282.31,219.06Z" transform="translate(-23.72 -5.99)" fill="#020202" opacity="0.1"></path><path d="M285.35,210.2a4.07,4.07,0,0,1,1.2,2.15,4,4,0,0,1-.15,1.23,4.67,4.67,0,0,1-.37,1.09,4.23,4.23,0,0,1-.93,1.05l-.83.77a1.26,1.26,0,0,1-.36.24.69.69,0,0,1-.74-.32,2.08,2.08,0,0,1-.26-.82c-.25-1.52-1.16-4-.73-5.52C282.69,208.29,284.53,209.27,285.35,210.2Z" transform="translate(-23.72 -5.99)" fill="#ffbbab"></path><path d="M304.16,224.07c0,.83-.1,1.69-.1,2.53,0,4.63,1.07,9.4-.31,13.93a5.1,5.1,0,0,0-.39,3.1,3.87,3.87,0,0,0,1.94,1.86c4.08,2.23,8.79,2.91,13.39,3.56,3.46.48,8.37,1.51,11.57-.35,1.36-.8,1.82-2.27,2.26-3.75,1.39-4.69,1.79-9.74,2.16-14.6.05-.64.09-1.28.13-1.92.26-4.43.36-8.86.27-13.29-.06-3.22-.32-6.69-2.42-9.12-2.79-3.24-8.2-5.38-12.3-6.13a13.72,13.72,0,0,0-4-.22,17,17,0,0,0-5.47,1.85c-2,1-3.85,1.86-4.85,3.88a27.26,27.26,0,0,0-2.28,7.33,26.71,26.71,0,0,0-.13,7.2c.13,1.17.43,2.34.54,3.5C304.15,223.65,304.16,223.86,304.16,224.07Z" transform="translate(-23.72 -5.99)" fill="#fff"></path><path d="M323,250.27c1.34.4,4.43-.83,5.46-1,.62-.11,1.18-.41,1.79-.56,3.06-.76,3.42-9.37,3.72-11.69.8-6.12,2-12.46,2.09-18.6a20.71,20.71,0,0,0-.81-7,8.12,8.12,0,0,0-4.59-5.1,2.45,2.45,0,0,0-1.36-.15c-1.87.48-2.26,3.56-2.57,5.05-.49,2.29-1.31,4.66-3.3,6.08-4.84,3.44-13,.89-18.23,0a2.49,2.49,0,0,0-1.41.05,1.77,1.77,0,0,0-.76,2,10.46,10.46,0,0,0,1,2.09c1.25,2.51.92,5.51,1.63,8.23a15.23,15.23,0,0,0,5.89,8,64.72,64.72,0,0,0,8.78,5.06,6.46,6.46,0,0,1,1.84,1.3,4.13,4.13,0,0,1,.89,2.78c0,.64-.82,2.6-.58,3.05A.9.9,0,0,0,323,250.27Z" transform="translate(-23.72 -5.99)" fill="#020202" opacity="0.1"></path><rect x="288.69" y="182.04" width="18.4" height="90.74" transform="translate(-91.07 137.46) rotate(-24.41)" fill="#209d4e"></rect><rect x="293.84" y="194.31" width="7.86" height="65.64" rx="3.38" transform="translate(-90.97 137.38) rotate(-24.41)" fill="url(#linear-gradient-3)"></rect><path d="M313.62,196.05a3,3,0,0,0,1.89.95,10.94,10.94,0,0,0,1.81,0l.34,0a.42.42,0,0,1,.25.05.37.37,0,0,1,.11.27,20.13,20.13,0,0,1,.07,3.64h0l-.06.65a1.34,1.34,0,0,0,.06.69,1.13,1.13,0,0,0,.74.48,5.09,5.09,0,0,0,1.64.28,7.27,7.27,0,0,0,3.35-1.18,33.84,33.84,0,0,1,.33-6.2c.38-2.66,1.08-5.31.79-8a4.36,4.36,0,0,0-5-4.31,10,10,0,0,0-5.43,1.48,2.09,2.09,0,0,0-.8,1.61c-.21,1-.38,2.1-.49,3.16-.14,1.21-.21,2.42-.23,3.64A4.13,4.13,0,0,0,313.62,196.05Z" transform="translate(-23.72 -5.99)" fill="#ffbbab"></path><path d="M317.32,197l.34,0a.42.42,0,0,1,.25.05.37.37,0,0,1,.11.27,20.13,20.13,0,0,1,.07,3.64h0a4.89,4.89,0,0,0,3.36-5.17,19.84,19.84,0,0,1-4.1,1.21Z" transform="translate(-23.72 -5.99)" fill="#e0a194"></path><path d="M299.91,207.31l-.34-.52c-.14-.22-.37-.47-.62-.38s-.27.44-.5.57a.7.7,0,0,1-.36.06,21.06,21.06,0,0,0-3.37.11,1.88,1.88,0,0,0-1.57,1.11,2.53,2.53,0,0,0,.06,1.36,6.78,6.78,0,0,0,1.36,3.11,7,7,0,0,0,2.24,1.43,7.63,7.63,0,0,1,2,1.14c.8.53,1.39,1.32,2.17,1.88a2.28,2.28,0,0,0,3.34-3.06l-1.19-1.83Z" transform="translate(-23.72 -5.99)" fill="#ffbbab"></path><rect x="319.74" y="205.53" width="13.22" height="31.12" rx="6.61" transform="translate(536.28 532.57) rotate(-160.47)" fill="#fff"></rect><path d="M319.44,219.93,304.88,212l-5.61,6.37s18.34,18.49,23.74,17.76,3.13-6.46,3.13-6.46S328.18,223.49,319.44,219.93Z" transform="translate(-23.72 -5.99)" fill="#fff"></path><path d="M318.36,187.28c1.07.48,2.29.58,3.32,1.14s1.83,1.9,1.21,2.9c.44-.34,1.15.11,1.19.67a1.43,1.43,0,0,1-.91,1.27l1.11,2.27a1.17,1.17,0,0,0,.41.54,1,1,0,0,0,.62.1,3.3,3.3,0,0,0,2.34-1.65,8.43,8.43,0,0,0,.93-2.79,41.77,41.77,0,0,0,.7-5.57,7.14,7.14,0,0,0-.23-2.73,5.86,5.86,0,0,0-2-2.56,9.67,9.67,0,0,0-6.81-2.12c-1.82.2-4.84,1.49-5.37,3.5S316.82,186.59,318.36,187.28Z" transform="translate(-23.72 -5.99)" fill="#fc682d"></path><g id="Q83r0t"><path d="M219,146.86a4.71,4.71,0,0,1-3.41-1.35c-.67-.64-1.3-1.33-2-2a4.26,4.26,0,0,0-4.89-.95,4.33,4.33,0,0,0-2.77,4.15c0,1,0,2,0,3a4.7,4.7,0,0,1-4.81,4.63h-5.6a4.78,4.78,0,0,1-4.86-4.81c0-1,0-2,0-3a4.48,4.48,0,0,0-7.54-3.11c-.68.64-1.31,1.33-2,2a4.86,4.86,0,0,1-6.93-.05c-1.37-1.35-2.75-2.71-4.1-4.08a4.71,4.71,0,0,1,0-6.89c.63-.65,1.29-1.26,1.91-1.91a4.17,4.17,0,0,0,1-4.71,4.21,4.21,0,0,0-4-2.85c-1,0-2,0-3,0a4.77,4.77,0,0,1-4.89-5.07c0-1.77,0-3.54,0-5.31a4.69,4.69,0,0,1,4.43-4.81c1-.09,2.05,0,3.08,0a4.38,4.38,0,0,0,4.33-2.8,4.3,4.3,0,0,0-1.17-5c-.61-.61-1.24-1.21-1.83-1.84a4.66,4.66,0,0,1,0-6.61c1.45-1.5,2.94-3,4.48-4.39a4.83,4.83,0,0,1,6.64.1c.7.67,1.36,1.38,2.06,2a4.16,4.16,0,0,0,4.73.88,4.22,4.22,0,0,0,2.8-4c0-.93,0-1.87,0-2.8a4.82,4.82,0,0,1,5.09-5H201a4.82,4.82,0,0,1,5,4.87c0,.9,0,1.8,0,2.7A4.49,4.49,0,0,0,213.71,91c.62-.61,1.22-1.24,1.84-1.84a4.85,4.85,0,0,1,6.86,0c1.44,1.39,2.85,2.79,4.25,4.21a4.69,4.69,0,0,1,0,6.75c-.68.69-1.39,1.34-2.06,2a4.09,4.09,0,0,0-1,4.46,4.15,4.15,0,0,0,3.66,3c1.05.11,2.12,0,3.18.06a4.39,4.39,0,0,1,4.67,4.56q.1,3,0,6.08a4.48,4.48,0,0,1-4.82,4.64c-.93,0-1.87,0-2.8,0a4.21,4.21,0,0,0-3.88,2.85,4.1,4.1,0,0,0,.94,4.63c.67.69,1.38,1.34,2,2a4.71,4.71,0,0,1,0,6.76c-1.39,1.43-2.81,2.83-4.23,4.23A4.78,4.78,0,0,1,219,146.86Zm-36.11-29.6a15.44,15.44,0,1,0,15.49-15.41A15.41,15.41,0,0,0,182.87,117.26Z" transform="translate(-23.72 -5.99)" fill="#209d4e"></path></g><g id="Q83r0t-2" data-name="Q83r0t"><path d="M270.65,152.74a3.17,3.17,0,0,1-2.31-.91c-.45-.44-.88-.9-1.34-1.33a2.85,2.85,0,0,0-3.31-.64,2.94,2.94,0,0,0-1.88,2.8c0,.68,0,1.35,0,2a3.18,3.18,0,0,1-3.26,3.13c-1.26,0-2.52,0-3.79,0a3.23,3.23,0,0,1-3.29-3.25c0-.67,0-1.35,0-2a2.86,2.86,0,0,0-1.91-2.71,2.8,2.8,0,0,0-3.19.6c-.46.43-.89.9-1.35,1.34a3.29,3.29,0,0,1-4.69,0c-.93-.91-1.86-1.83-2.78-2.76a3.2,3.2,0,0,1,0-4.67c.43-.43.88-.84,1.3-1.29a2.8,2.8,0,0,0,.65-3.18,2.85,2.85,0,0,0-2.7-1.93c-.67,0-1.35,0-2,0a3.23,3.23,0,0,1-3.31-3.43c0-1.2,0-2.4,0-3.6a3.18,3.18,0,0,1,3-3.26c.69,0,1.39,0,2.09,0a3,3,0,0,0,2.93-1.89,2.91,2.91,0,0,0-.79-3.39c-.42-.42-.84-.82-1.25-1.25a3.16,3.16,0,0,1,0-4.47q1.47-1.53,3-3a3.26,3.26,0,0,1,4.5.07c.47.45.91.93,1.39,1.37a2.8,2.8,0,0,0,3.2.59,2.84,2.84,0,0,0,1.89-2.72c0-.63,0-1.26,0-1.89a3.27,3.27,0,0,1,3.45-3.37h3.52a3.26,3.26,0,0,1,3.4,3.29c0,.61,0,1.22,0,1.83a3,3,0,0,0,5.22,2.17l1.25-1.24a3.27,3.27,0,0,1,4.64,0c1,.94,1.93,1.89,2.87,2.85a3.17,3.17,0,0,1,0,4.57c-.45.46-.94.9-1.39,1.37a2.78,2.78,0,0,0-.67,3,2.83,2.83,0,0,0,2.48,2c.71.08,1.44,0,2.15,0a3,3,0,0,1,3.17,3.09q.06,2.06,0,4.11a3,3,0,0,1-3.27,3.14c-.63,0-1.26,0-1.89,0a2.84,2.84,0,0,0-2.63,1.93,2.77,2.77,0,0,0,.64,3.13c.45.47.93.91,1.39,1.38a3.19,3.19,0,0,1,0,4.57c-.94,1-1.91,1.91-2.87,2.86A3.2,3.2,0,0,1,270.65,152.74Zm-24.44-20a10.45,10.45,0,1,0,10.48-10.43A10.43,10.43,0,0,0,246.21,132.71Z" transform="translate(-23.72 -5.99)" fill="#209d4e"></path></g><polygon points="170.44 74.24 169.26 74.24 169.26 51.94 147.09 51.94 147.09 50.75 170.44 50.75 170.44 74.24" fill="#209d4e"></polygon><polygon points="179.54 74.24 178.35 74.24 178.35 61.46 219.1 61.46 219.1 62.65 179.54 62.65 179.54 74.24" fill="#209d4e"></polygon><polygon points="231.81 101.66 230.62 101.66 230.62 84.73 211.45 84.73 211.45 83.55 231.81 83.55 231.81 101.66" fill="#209d4e"></polygon><path d="M245.27,71.1a3,3,0,1,1,3-3A3.06,3.06,0,0,1,245.27,71.1Zm0-4.91a1.86,1.86,0,1,0,1.86,1.86A1.86,1.86,0,0,0,245.27,66.19Z" transform="translate(-23.72 -5.99)" fill="#209d4e"></path><path d="M168.36,60.39a3,3,0,1,1,3-3A3.06,3.06,0,0,1,168.36,60.39Zm0-4.91a1.86,1.86,0,1,0,1.86,1.86A1.86,1.86,0,0,0,168.36,55.48Z" transform="translate(-23.72 -5.99)" fill="#209d4e"></path><path d="M233.09,93.18a3,3,0,1,1,3-3.05A3.06,3.06,0,0,1,233.09,93.18Zm0-4.91A1.86,1.86,0,1,0,235,90.13,1.87,1.87,0,0,0,233.09,88.27Z" transform="translate(-23.72 -5.99)" fill="#209d4e"></path><path d="M160.32,85.45l-9.84-3.75A37.62,37.62,0,0,1,149,71.41a36.61,36.61,0,0,1,11.41-26.59,38.36,38.36,0,0,1,11-7.27C144.17,60.92,160.32,85.45,160.32,85.45Z" transform="translate(-23.72 -5.99)" fill="url(#linear-gradient-4)"></path><path d="M293.16,178.83a17.67,17.67,0,1,1-30.71-11.93l3.35,7.38,3.78,8.3,13.22-6-3.8-8.38-3.2-7A17.65,17.65,0,0,1,293.16,178.83Z" transform="translate(-23.72 -5.99)" fill="#209d4e"></path><path d="M339.12,277.35A17.52,17.52,0,0,1,334.77,289l-7.42-16.39-13.23,6L321.58,295h-.13a17.68,17.68,0,1,1,17.67-17.68Z" transform="translate(-23.72 -5.99)" fill="#209d4e"></path></svg>